DataRate=2000.000000
DataType=double
version=3
OpenSimVersion=4.3-2021-08-27-4bc7ad9
endheader
time	f1_1	f1_2	f1_3	p1_1	p1_2	p1_3	m1_1	m1_2	m1_3	f2_1	f2_2	f2_3	p2_1	p2_2	p2_3	m2_1	m2_2	m2_3	f3_1	f3_2	f3_3	p3_1	p3_2	p3_3	m3_1	m3_2	m3_3	f4_1	f4_2	f4_3	p4_1	p4_2	p4_3	m4_1	m4_2	m4_3
0	-0	0	0	-300	2252	0	0	0	0	-3.398161649703979	-30.30433654785156	379.9569702148438	-300	1351	0	-104190.3671875	24191.21875	-854.9600219726562	3.293056466257305	33.7228165392572	396.9854125976562	-300	450.0000000000005	0	114372.2335966559	35612.87749968449	-1547.098999023438	-0	0	0	305	450.0000000000006	0	0	0	0
0.0005	-0	0	0	-300	2252	0	0	0	0	-3.471055030822754	-30.34507369995117	379.282958984375	-300	1351	0	-104388.3359375	24105.21484375	-937.218994140625	3.454348070269399	33.50601203838781	396.9642639160156	-300	450.0000000000005	0	114278.2179706563	35658.61187262972	-1709.071899414062	-0	0	0	305	450.0000000000006	0	0	0	0
0.001	-0	0	0	-300	2252	0	0	0	0	-3.357409000396729	-30.75812911987305	378.8008117675781	-300	1351	0	-103940.7265625	24243.283203125	-714.432861328125	3.371009083715813	33.99317176557028	396.678466796875	-300	450.0000000000005	0	114002.8351582847	35652.74077286103	-1618.110107421875	-0	0	0	305	450.0000000000006	0	0	0	0
0.0015	-0	0	0	-300	2252	0	0	0	0	-3.073858976364136	-30.84725189208984	377.3895263671875	-300	1351	0	-104135.5625	24078.09765625	-879.1951904296875	3.360294317746519	33.83787543965251	397.3134460449219	-300	450.0000000000005	0	114134.6945365521	35503.24077574292	-1512.035766601562	-0	0	0	305	450.0000000000006	0	0	0	0
0.002	-0	0	0	-300	2252	0	0	0	0	-3.430411577224731	-30.9688777923584	379.2508544921875	-300	1351	0	-104216.7109375	24166.884765625	-929.865478515625	3.172187062230855	33.99319846410575	397.048583984375	-300	450.0000000000005	0	114391.2335942748	35721.82281259976	-1597.269287109375	-0	0	0	305	450.0000000000006	0	0	0	0
0.0025	-0	0	0	-300	2252	0	0	0	0	-3.00896143913269	-31.30894470214844	378.5123596191406	-300	1351	0	-104359.0234375	23800.490234375	-903.458984375	2.88149330605675	33.82188803294775	397.9066467285156	-300	450.0000000000005	0	114362.4679725124	35573.68999947106	-1612.473022460938	-0	0	0	305	450.0000000000006	0	0	0	0
0.003	-0	0	0	-300	2252	0	0	0	0	-3.641370534896851	-30.64461326599121	377.6781311035156	-300	1351	0	-104289.1953125	24127.0234375	-897.7498168945312	3.505649783403469	33.7175865939524	395.9800109863281	-300	450.0000000000005	0	114065.0539105259	35550.19389922087	-1421.379150390625	-0	0	0	305	450.0000000000006	0	0	0	0
0.0035	-0	0	0	-300	2252	0	0	0	0	-3.519824504852295	-30.4744815826416	378.8334655761719	-300	1351	0	-104003.7734375	23830.119140625	-855.0777587890625	2.844084724810611	33.40686422841922	396.5731811523438	-300	450.0000000000005	0	114346.5382809158	35761.12749912291	-1478.525146484375	-0	0	0	305	450.0000000000006	0	0	0	0
0.004	-0	0	0	-300	2252	0	0	0	0	-3.892799854278564	-30.41779136657715	377.7100219726562	-300	1351	0	-104318.8984375	24163.201171875	-969.4227294921875	2.938121296454058	33.74950415357016	395.6517639160156	-300	450.0000000000005	0	114202.5304655513	35892.18999597552	-1499.249755859375	-0	0	0	305	450.0000000000006	0	0	0	0
0.004500000000000001	-0	0	0	-300	2252	0	0	0	0	-3.56842041015625	-30.62845420837402	379.2831420898438	-300	1351	0	-104405.1953125	24030.55859375	-1025.336303710938	3.099550936340597	33.92082984069206	396.5942993164062	-300	450.0000000000005	0	114569.1164127348	35449.1275039875	-1391.360229492188	-0	0	0	305	450.0000000000006	0	0	0	0
0.005	-0	0	0	-300	2252	0	0	0	0	-3.600824594497681	-30.32861709594727	379.1224670410156	-300	1351	0	-103915.5390625	23979.06640625	-796.4678955078125	3.010847302171334	34.00385291004245	396.0635375976562	-300	450.0000000000005	0	114313.2335992348	35494.88140464501	-1454.15625	-0	0	0	305	450.0000000000006	0	0	0	0
0.0055	-0	0	0	-300	2252	0	0	0	0	-3.909075021743774	-30.59598731994629	380.5357055664062	-300	1351	0	-104097.1484375	23974.607421875	-900.455322265625	2.959323378759736	33.98270041257847	397.8656005859375	-300	450.0000000000005	0	114131.1007912348	35288.98296316437	-1555.0107421875	-0	0	0	305	450.0000000000006	0	0	0	0
0.006	-0	0	0	-300	2252	0	0	0	0	-3.746841430664062	-30.86335754394531	378.5448608398438	-300	1351	0	-103928.328125	23736.61328125	-884.6450805664062	3.427895048806204	33.65584571700887	395.30224609375	-300	450.0000000000005	0	114181.171100777	35424.31890175869	-1384.552124023438	-0	0	0	305	450.0000000000006	0	0	0	0
0.006500000000000001	-0	0	0	-300	2252	0	0	0	0	-3.714524745941162	-31.07422256469727	377.9664916992188	-300	1351	0	-103964.9765625	23606.58203125	-988.5240478515625	2.943345762779494	33.74943167443629	396.287109375	-300	450.0000000000005	0	114303.3039138161	35399.65093567799	-1330.173828125	-0	0	0	305	450.0000000000006	0	0	0	0
0.007	-0	0	0	-300	2252	0	0	0	0	-3.422286987304688	-30.73386001586914	378.5769348144531	-300	1351	0	-104196.6015625	23888.884765625	-953.6423950195312	3.214745972160741	33.9260597931609	396.3912048339844	-300	450.0000000000005	0	114204.7570378733	35442.78765227418	-1370.596801757812	-0	0	0	305	450.0000000000006	0	0	0	0
0.0075	-0	0	0	-300	2252	0	0	0	0	-3.787164449691772	-30.58784294128418	378.319580078125	-300	1351	0	-104200.5703125	23733.546875	-884.4028930664062	3.527301043796732	34.0658760841717	398.0120544433594	-300	450.0000000000005	0	114438.3585997919	35469.3892198797	-1557.218017578125	-0	0	0	305	450.0000000000006	0	0	0	0
0.008	-0	0	0	-300	2252	0	0	0	0	-4.136492729187012	-30.76608848571777	378.7388000488281	-300	1351	0	-103726.484375	24091.26171875	-975.1828002929688	3.161936739862812	33.64531333204578	397.6421813964844	-300	450.0000000000005	0	114061.9757904351	35325.57280540359	-1426.396728515625	-0	0	0	305	450.0000000000006	0	0	0	0
0.008500000000000001	-0	0	0	-300	2252	0	0	0	0	-3.592570543289185	-30.88803482055664	376.649169921875	-300	1351	0	-103812.6875	23702.1953125	-839.288330078125	2.687662344782061	33.56224065932667	397.0268859863281	-300	450.0000000000005	0	114355.6242272833	35355.39703057148	-1565.580688476562	-0	0	0	305	450.0000000000006	0	0	0	0
0.009000000000000001	-0	0	0	-300	2252	0	0	0	0	-3.836051940917969	-30.56295204162598	378.064697265625	-300	1351	0	-103996.3046875	23870.658203125	-1081.148681640625	3.099616032220965	33.57271582702161	397.6837158203125	-300	450.0000000000005	0	114174.3117265134	35390.62358910878	-1555.31640625	-0	0	0	305	450.0000000000006	0	0	0	0
0.0095	-0	0	0	-300	2252	0	0	0	0	-3.860158205032349	-31.3016471862793	376.2957153320312	-300	1351	0	-104204.9296875	23814.6484375	-1089.923095703125	3.005659081491192	33.7284241379564	397.7043762207031	-300	450.0000000000005	0	114248.9211002038	35450.54546573941	-1387.780517578125	-0	0	0	305	450.0000000000006	0	0	0	0
0.01	-0	0	0	-300	2252	0	0	0	0	-4.111711502075195	-30.61183166503906	378.0932312011719	-300	1351	0	-103962.7265625	23800.8359375	-926.8558959960938	2.843990546190143	33.55701834218669	397.9915466308594	-300	450.0000000000005	0	114293.9679752356	35449.08843547395	-1392.97216796875	-0	0	0	305	450.0000000000006	0	0	0	0
0.0105	-0	0	0	-300	2252	0	0	0	0	-4.192893981933594	-30.99333572387695	379.8945617675781	-300	1351	0	-103801.4375	24050.798828125	-1135.124633789062	2.927455170047763	33.49478918751673	397.2108154296875	-300	450.0000000000005	0	114181.3429787706	35287.34624551245	-1469.768432617188	-0	0	0	305	450.0000000000006	0	0	0	0
0.011	-0	0	0	-300	2252	0	0	0	0	-4.184870719909668	-30.71792411804199	378.4818420410156	-300	1351	0	-103797.0625	23826.59765625	-836.5914306640625	2.922213768967625	33.81677252480452	395.2808837890625	-300	450.0000000000005	0	114434.5382888612	35397.5884385462	-1361.539916992188	-0	0	0	305	450.0000000000006	0	0	0	0
0.0115	-0	0	0	-300	2252	0	0	0	0	-4.055588722229004	-30.4815616607666	377.2279052734375	-300	1351	0	-103887.484375	23697.03515625	-1049.260131835938	2.838744381275491	33.67140966897633	395.9585266113281	-300	450.0000000000005	0	114240.632038914	35395.17046555825	-1412.089721679688	-0	0	0	305	450.0000000000006	0	0	0	0
0.012	-0	0	0	-300	2252	0	0	0	0	-3.63248872756958	-31.28588676452637	377.6762084960938	-300	1351	0	-103750.5625	23548.15625	-1047.181762695312	2.849198313333859	34.00905615357981	396.3076782226562	-300	450.0000000000005	0	114240.0773535965	35295.31109054613	-1333.513671875	-0	0	0	305	450.0000000000006	0	0	0	0
0.0125	-0	0	0	-300	2252	0	0	0	0	-4.274103164672852	-30.43343734741211	378.8037109375	-300	1351	0	-103707	23938.76171875	-1025.280517578125	2.990067452823821	34.06098944523282	396.6156921386719	-300	450.0000000000005	0	113948.0851626789	35451.68217791444	-1419.094604492188	-0	0	0	305	450.0000000000006	0	0	0	0
0.013	-0	0	0	-300	2252	0	0	0	0	-4.208881855010986	-30.81515884399414	377.32275390625	-300	1351	0	-103802.4375	23727.07421875	-1081.432373046875	2.588249426577853	33.56742864543519	396.24609375	-300	450.0000000000005	0	114184.5929746913	35473.99468308348	-1434.65185546875	-0	0	0	305	450.0000000000006	0	0	0	0
0.0135	-0	0	0	-300	2252	0	0	0	0	-4.331381797790527	-30.5557689666748	378.60888671875	-300	1351	0	-103904.3125	23786.794921875	-1102.63818359375	2.833539227425399	33.64538198941921	395.6912536621094	-300	450.0000000000005	0	114413.8195375594	35457.15093809339	-1244.58056640625	-0	0	0	305	450.0000000000006	0	0	0	0
0.014	-0	0	0	-300	2252	0	0	0	0	-3.989097356796265	-30.44129943847656	378.450927734375	-300	1351	0	-103848.2265625	23745.818359375	-1041.364013671875	2.744835596887774	33.56224066057623	397.35498046875	-300	450.0000000000005	0	114045.2804763072	35400.0571800387	-1328.309326171875	-0	0	0	305	450.0000000000006	0	0	0	0
0.0145	-0	0	0	-300	2252	0	0	0	0	-4.630974292755127	-30.95214462280273	377.0323791503906	-300	1351	0	-103976.4765625	23549.109375	-959.4510498046875	2.682085733878047	33.57774358889229	397.6224365234375	-300	450.0000000000005	0	114178.3507910525	35297.32671419705	-1323.053344726562	-0	0	0	305	450.0000000000006	0	0	0	0
0.015	-0	0	0	-300	2252	0	0	0	0	-4.517876625061035	-31.17176818847656	378.9305725097656	-300	1351	0	-103732.171875	23358.048828125	-948.6367797851562	2.990248656278967	33.81688696720943	396.63623046875	-300	450.0000000000005	0	114292.0382900738	35342.10796668177	-1244.626708984375	-0	0	0	305	450.0000000000006	0	0	0	0
0.0155	-0	0	0	-300	2252	0	0	0	0	-4.216766357421875	-30.88054656982422	378.4828796386719	-300	1351	0	-103592.1796875	23651.953125	-1092.458862304688	2.572612027219985	33.64025884528873	396.5751037597656	-300	450.0000000000005	0	113936.2335999711	35461.18999015541	-1321.243530273438	-0	0	0	305	450.0000000000006	0	0	0	0
0.016	-0	0	0	-300	2252	0	0	0	0	-4.420774459838867	-30.43318176269531	377.1647033691406	-300	1351	0	-103601.7109375	23552.490234375	-932.3474731445312	2.593287928228702	33.48421483939296	395.5684509277344	-300	450.0000000000005	0	114350.4757924273	35234.42046795896	-1221.664184570312	-0	0	0	305	450.0000000000006	0	0	0	0
0.0165	-0	0	0	-300	2252	0	0	0	0	-4.07007360458374	-30.8629264831543	376.7801208496094	-300	1351	0	-103971.28125	23499.61328125	-940.418212890625	2.906808356448526	33.63514715825688	395.3412170410156	-300	450.0000000000005	0	114168.3351701259	35110.94780772815	-1412.219848632812	-0	0	0	305	450.0000000000006	0	0	0	0
0.017	-0	0	0	-300	2252	0	0	0	0	-4.599268436431885	-31.05893898010254	376.2937316894531	-300	1351	0	-103730.9453125	23735.013671875	-1041.435302734375	2.562303051507525	33.40099340316889	397.0260009765625	-300	450.0000000000005	0	114098.2179807259	35197.88139994569	-1333.391357421875	-0	0	0	305	450.0000000000006	0	0	0	0
0.0175	-0	0	0	-300	2252	0	0	0	0	-4.224607467651367	-30.61925506591797	377.9339294433594	-300	1351	0	-103644.15625	23599.25390625	-1251.507568359375	2.415779331987387	33.65056615387276	397.5824279785156	-300	450.0000000000005	0	114170.7726631881	35428.38530778143	-1404.996337890625	-0	0	0	305	450.0000000000006	0	0	0	0
0.018	-0	0	0	-300	2252	0	0	0	0	-4.502209663391113	-31.08276748657227	378.0362243652344	-300	1351	0	-103683.3046875	23577.4765625	-1196.75146484375	2.719193677110561	33.63521200400995	395.9176940917969	-300	450.0000000000005	0	114106.5695377898	35446.60796262822	-1209.616455078125	-0	0	0	305	450.0000000000006	0	0	0	0
